# xmcd CD database file
# Copyright (C) 1993-1998 Ti Kan
# 
# Track frame offsets:
#     182
#     12132
#     27597
#     39115
#     56262
#     78152
#     95807
#     110487
#     124030
#     145465
#     165680
#     177212
#     197222
#     209150
#     227245
#     244785
#     262595
#     280642
#     287147
#     308952
# 
# Disc length: 4296 seconds
# 
# Revision: 1
# Processed by: cddbd v1.4b41PL1 Copyright (c) Steve Scherf et al.
# Submitted via: DiscPlay 4.0.4
# 
DISCID=1910c614
DTITLE=Lightnin Hopkins - Just sittin down thinkin
DYEAR=1900
DGENRE=
TTITLE0=just sittin down thinkin
TTITLE1=don't keep my baby long
TTITLE2=tell my pretty mama
TTITLE3=bad luck and trouble
TTITLE4=needed time
TTITLE5=last affairs
TTITLE6=sante fe blues
TTITLE7=someday
TTITLE8=jake head boogie
TTITLE9=glory be
TTITLE10=sometimes she will
TTITLE11=shine on moon
TTITLE12=have you ever loved
TTITLE13=shake that thing
TTITLE14=i'm leaving you now
TTITLE15=walk a long time
TTITLE16=bring me my shotgun
TTITLE17=just pickin
TTITLE18=last night
TTITLE19=mojo hand
EXTD=
EXTT0=
EXTT1=
EXTT2=
EXTT3=
EXTT4=
EXTT5=
EXTT6=
EXTT7=
EXTT8=
EXTT9=
EXTT10=
EXTT11=
EXTT12=
EXTT13=
EXTT14=
EXTT15=
EXTT16=
EXTT17=
EXTT18=
EXTT19=
PLAYORDER=
